<svg width="16" height="16" viewBox="0 0 16 16" fill="none" xmlns="http://www.w3.org/2000/svg">
<path d="M3.33337 6.66665H4.66671C6.00004 6.66665 6.66671 5.99998 6.66671 4.66665V3.33331C6.66671 1.99998 6.00004 1.33331 4.66671 1.33331H3.33337C2.00004 1.33331 1.33337 1.99998 1.33337 3.33331V4.66665C1.33337 5.99998 2.00004 6.66665 3.33337 6.66665ZM11.3334 6.66665H12.6667C14 6.66665 14.6667 5.99998 14.6667 4.66665V3.33331C14.6667 1.99998 14 1.33331 12.6667 1.33331H11.3334C10 1.33331 9.33337 1.99998 9.33337 3.33331V4.66665C9.33337 5.99998 10 6.66665 11.3334 6.66665ZM11.3334 14.6666H12.6667C14 14.6666 14.6667 14 14.6667 12.6666V11.3333C14.6667 9.99998 14 9.33331 12.6667 9.33331H11.3334C10 9.33331 9.33337 9.99998 9.33337 11.3333V12.6666C9.33337 14 10 14.6666 11.3334 14.6666ZM3.33337 14.6666H4.66671C6.00004 14.6666 6.66671 14 6.66671 12.6666V11.3333C6.66671 9.99998 6.00004 9.33331 4.66671 9.33331H3.33337C2.00004 9.33331 1.33337 9.99998 1.33337 11.3333V12.6666C1.33337 14 2.00004 14.6666 3.33337 14.6666Z" stroke="#9999AA" stroke-miterlimit="10" stroke-linecap="round" stroke-linejoin="round"/>
</svg>
