<svg width="30" height="30" viewBox="0 0 30 30" fill="none" xmlns="http://www.w3.org/2000/svg">
<path d="M15.675 22.1877H23.075C22.9625 22.2877 22.85 22.3752 22.7375 22.4752L17.4 26.4752C15.6375 27.7877 12.7625 27.7877 10.9875 26.4752L5.6375 22.4752C4.4625 21.6002 3.5 19.6627 3.5 18.2002V8.9377C3.5 7.4127 4.6625 5.7252 6.0875 5.1877L12.3125 2.8502C13.3375 2.4627 15.0375 2.4627 16.0625 2.8502L22.275 5.1877C23.4625 5.6377 24.475 6.8877 24.7875 8.1627H15.6625C15.3875 8.1627 15.1375 8.1752 14.9 8.1752C12.5875 8.3127 11.9875 9.1502 11.9875 11.7877V18.5752C12 21.4502 12.7375 22.1877 15.675 22.1877V22.1877Z" stroke="#EE3036" stroke-width="2" stroke-linecap="round" stroke-linejoin="round"/>
<path d="M12 14.0254H28.5" stroke="#EE3036" stroke-width="2" stroke-miterlimit="10" stroke-linecap="round" stroke-linejoin="round"/>
<path d="M28.5 11.7752V18.7127C28.475 21.4877 27.7125 22.1752 24.825 22.1752H15.675C12.7375 22.1752 12 21.4377 12 18.5502V11.7627C12 9.13769 12.6 8.30019 14.9125 8.1502C15.15 8.1502 15.4 8.1377 15.675 8.1377H24.825C27.7625 8.1502 28.5 8.8752 28.5 11.7752Z" stroke="#EE3036" stroke-width="2" stroke-linecap="round" stroke-linejoin="round"/>
<path d="M15.1499 19.0752H16.8124M19.4374 19.0752H23.5249" stroke="#EE3036" stroke-width="2" stroke-miterlimit="10" stroke-linecap="round" stroke-linejoin="round"/>
</svg>
