<svg width="30" height="30" viewBox="0 0 30 30" fill="none" xmlns="http://www.w3.org/2000/svg">
<path d="M18.75 2.5V15C18.75 16.375 17.625 17.5 16.25 17.5H2.5V7.5C2.5 4.7375 4.7375 2.5 7.5 2.5H18.75Z" stroke="#EE3036" stroke-width="2" stroke-linecap="round" stroke-linejoin="round"/>
<path d="M27.5 17.5V21.25C27.5 23.325 25.825 25 23.75 25H22.5C22.5 23.625 21.375 22.5 20 22.5C18.625 22.5 17.5 23.625 17.5 25H12.5C12.5 23.625 11.375 22.5 10 22.5C8.625 22.5 7.5 23.625 7.5 25H6.25C4.175 25 2.5 23.325 2.5 21.25V17.5H16.25C17.625 17.5 18.75 16.375 18.75 15V6.25H21.05C21.95 6.25 22.775 6.7375 23.225 7.5125L25.3625 11.25H23.75C23.0625 11.25 22.5 11.8125 22.5 12.5V16.25C22.5 16.9375 23.0625 17.5 23.75 17.5H27.5Z" stroke="#EE3036" stroke-width="2" stroke-linecap="round" stroke-linejoin="round"/>
<path d="M10 27.5C10.663 27.5 11.2989 27.2366 11.7678 26.7678C12.2366 26.2989 12.5 25.663 12.5 25C12.5 24.337 12.2366 23.7011 11.7678 23.2322C11.2989 22.7634 10.663 22.5 10 22.5C9.33696 22.5 8.70107 22.7634 8.23223 23.2322C7.76339 23.7011 7.5 24.337 7.5 25C7.5 25.663 7.76339 26.2989 8.23223 26.7678C8.70107 27.2366 9.33696 27.5 10 27.5V27.5ZM20 27.5C20.663 27.5 21.2989 27.2366 21.7678 26.7678C22.2366 26.2989 22.5 25.663 22.5 25C22.5 24.337 22.2366 23.7011 21.7678 23.2322C21.2989 22.7634 20.663 22.5 20 22.5C19.337 22.5 18.7011 22.7634 18.2322 23.2322C17.7634 23.7011 17.5 24.337 17.5 25C17.5 25.663 17.7634 26.2989 18.2322 26.7678C18.7011 27.2366 19.337 27.5 20 27.5ZM27.5 15V17.5H23.75C23.0625 17.5 22.5 16.9375 22.5 16.25V12.5C22.5 11.8125 23.0625 11.25 23.75 11.25H25.3625L27.5 15Z" stroke="#EE3036" stroke-width="2" stroke-linecap="round" stroke-linejoin="round"/>
</svg>
