<svg width="20" height="20" viewBox="0 0 20 20" fill="none" xmlns="http://www.w3.org/2000/svg">
<g clip-path="url(#clip0_791_323)">
<path d="M2.79157 1.6665H10.2082C10.8249 1.6665 11.3332 2.17484 11.3332 2.7915V4.02484C11.3332 4.47484 11.0499 5.03317 10.7749 5.3165L8.35824 7.44984C8.02491 7.73317 7.79991 8.2915 7.79991 8.7415V11.1582C7.79991 11.4915 7.57491 11.9415 7.29157 12.1165L6.50824 12.6248C5.77491 13.0748 4.76657 12.5665 4.76657 11.6665V8.6915C4.76657 8.29984 4.54157 7.7915 4.31657 7.50817L2.18324 5.25817C1.89991 4.97484 1.67491 4.47484 1.67491 4.13317V2.8415C1.66657 2.17484 2.17491 1.6665 2.79157 1.6665Z" stroke="black" stroke-width="1.5" stroke-miterlimit="10" stroke-linecap="round" stroke-linejoin="round"/>
<path d="M1.66699 10V12.5C1.66699 16.6667 3.33366 18.3334 7.50033 18.3334H12.5003C16.667 18.3334 18.3337 16.6667 18.3337 12.5V7.50003C18.3337 4.90003 17.6837 3.2667 16.1753 2.4167C15.7503 2.17503 14.9003 1.9917 14.1253 1.8667M10.8337 10.8334H15.0003M9.16699 14.1667H15.0003" stroke="black" stroke-width="1.5" stroke-linecap="round" stroke-linejoin="round"/>
</g>
<defs>
<clipPath id="clip0_791_323">
<rect width="20" height="20" fill="white"/>
</clipPath>
</defs>
</svg>
