<svg width="30" height="30" viewBox="0 0 30 30" fill="none" xmlns="http://www.w3.org/2000/svg">
<path d="M2.5 21.3252H15" stroke="#EE3036" stroke-width="2" stroke-miterlimit="10" stroke-linecap="round" stroke-linejoin="round"/>
<path d="M27.5 18.75C27.5 23.5875 23.5875 27.5 18.75 27.5L20.0625 25.3125M2.5 11.25C2.5 6.4125 6.4125 2.5 11.25 2.5L9.9375 4.6875M5.275 16.875H12.225C14.45 16.875 15 17.425 15 19.625V24.7625C15 26.9625 14.45 27.5125 12.225 27.5125H5.275C3.05 27.5125 2.5 26.9625 2.5 24.7625V19.625C2.5 17.425 3.05 16.875 5.275 16.875ZM23.125 13.75C23.8637 13.75 24.5951 13.6045 25.2776 13.3218C25.9601 13.0391 26.5801 12.6248 27.1025 12.1025C27.6248 11.5801 28.0391 10.9601 28.3218 10.2776C28.6045 9.59514 28.75 8.86369 28.75 8.125C28.75 7.38631 28.6045 6.65486 28.3218 5.97241C28.0391 5.28995 27.6248 4.66985 27.1025 4.14752C26.5801 3.62519 25.9601 3.21086 25.2776 2.92818C24.5951 2.6455 23.8637 2.5 23.125 2.5C21.6332 2.5 20.2024 3.09263 19.1475 4.14752C18.0926 5.20242 17.5 6.63316 17.5 8.125C17.5 9.61684 18.0926 11.0476 19.1475 12.1025C20.2024 13.1574 21.6332 13.75 23.125 13.75V13.75Z" stroke="#EE3036" stroke-width="2" stroke-linecap="round" stroke-linejoin="round"/>
</svg>
