<svg width="30" height="30" viewBox="0 0 30 30" fill="none" xmlns="http://www.w3.org/2000/svg">
<path d="M23.7501 11.25C23.7501 13.0625 23.2126 14.725 22.2876 16.1125C21.6097 17.1234 20.7281 17.9815 19.6991 18.6316C18.6701 19.2817 17.5166 19.7095 16.3126 19.8875C15.8876 19.9625 15.4501 20 15.0001 20C14.5501 20 14.1126 19.9625 13.6876 19.8875C12.4835 19.7095 11.33 19.2817 10.301 18.6316C9.27205 17.9815 8.39037 17.1234 7.71256 16.1125C6.75294 14.6729 6.2438 12.9801 6.25006 11.25C6.25006 6.4125 10.1626 2.5 15.0001 2.5C19.8376 2.5 23.7501 6.4125 23.7501 11.25Z" stroke="#EE3036" stroke-width="2" stroke-linecap="round" stroke-linejoin="round"/>
<path d="M26.5626 23.0875L24.5001 23.575C24.0376 23.6875 23.6751 24.0375 23.5751 24.5L23.1376 26.3375C23.0839 26.5631 22.9686 26.7692 22.8044 26.933C22.6403 27.0968 22.4339 27.2117 22.2082 27.2649C21.9825 27.318 21.7465 27.3074 21.5265 27.2341C21.3066 27.1609 21.1113 27.0279 20.9626 26.85L15.0001 20L9.03758 26.8625C8.88885 27.0404 8.69359 27.1734 8.47361 27.2466C8.25364 27.3199 8.01762 27.3305 7.79194 27.2774C7.56627 27.2242 7.35983 27.1093 7.19571 26.9455C7.03158 26.7817 6.91624 26.5756 6.86258 26.35L6.42508 24.5125C6.3719 24.2877 6.25722 24.0821 6.09386 23.9187C5.93049 23.7554 5.7249 23.6407 5.50008 23.5875L3.43758 23.1C3.22149 23.0482 3.02304 22.9399 2.86257 22.7862C2.7021 22.6325 2.58536 22.4389 2.52431 22.2252C2.46327 22.0116 2.4601 21.7855 2.51515 21.5702C2.57019 21.3549 2.68147 21.1581 2.83758 21L7.71258 16.125C8.39039 17.1359 9.27207 17.994 10.301 18.6441C11.33 19.2942 12.4835 19.722 13.6876 19.9C14.1126 19.975 14.5501 20.0125 15.0001 20.0125C15.4501 20.0125 15.8876 19.975 16.3126 19.9C18.8001 19.5375 20.9376 18.125 22.2876 16.125L27.1626 21C27.8501 21.675 27.5126 22.8625 26.5626 23.0875V23.0875ZM15.7251 7.475L16.4626 8.95C16.5626 9.15 16.8251 9.35 17.0626 9.3875L18.4001 9.6125C19.2501 9.75 19.4501 10.375 18.8376 10.9875L17.8001 12.025C17.6251 12.2 17.5251 12.5375 17.5876 12.7875L17.8876 14.075C18.1251 15.0875 17.5876 15.4875 16.6876 14.95L15.4376 14.2125C15.3106 14.1448 15.169 14.1093 15.0251 14.1093C14.8812 14.1093 14.7395 14.1448 14.6126 14.2125L13.3626 14.95C12.4626 15.475 11.9251 15.0875 12.1626 14.075L12.4626 12.7875C12.5126 12.55 12.4251 12.2 12.2501 12.025L11.2126 10.9875C10.6001 10.375 10.8001 9.7625 11.6501 9.6125L12.9876 9.3875C13.2126 9.35 13.4751 9.15 13.5751 8.95L14.3126 7.475C14.6751 6.675 15.3251 6.675 15.7251 7.475V7.475Z" stroke="#EE3036" stroke-width="2" stroke-linecap="round" stroke-linejoin="round"/>
</svg>
